<svg width="430" height="613" viewBox="0 0 430 613" fill="none" xmlns="http://www.w3.org/2000/svg">
<g clip-path="url(#clip0_1270_1864)">
<rect width="430" height="613" fill="#F8FAFC"/>
<g opacity="0.4">
<path d="M629 1.00003L-200 1V1.63934L629 1.63938V1.00003Z" fill="url(#paint0_radial_1270_1864)"/>
<path fill-rule="evenodd" clip-rule="evenodd" d="M-194.143 3.02455L-194.143 17.1967L-178.593 17.1967L-178.593 3.02455L-177.954 3.02455L-177.954 17.1967H-162.405V3.02455L-161.766 3.02455V17.1967H-146.217V3.02456L-145.578 3.02456V17.1967L-130.029 17.1967V3.02456L-129.39 3.02456V17.1967H-113.841V3.02456L-113.202 3.02456V17.1967L-97.653 17.1967V3.02456L-97.014 3.02456V17.1967H-81.465V3.02456H-80.826V17.1967H-65.2769V3.02456H-64.6379V17.1967L-49.0888 17.1967V3.02456H-48.4498V17.1967H-32.9007V3.02457H-32.2617V17.1967L-16.7126 17.1967V3.02457H-16.0736V17.1967H-0.524563V3.02457H0.114441V17.1967H15.6635V3.02457H16.3025V17.1967L31.8516 17.1967V3.02457H32.4906V17.1967H48.0397V3.02457H48.6787V17.1967L64.2278 17.1967V3.02457H64.8668V17.1967H80.4158V3.02458H81.0548V17.1967L96.6039 17.1967V3.02458H97.2429V17.1967H112.792V3.02458H113.431V17.1967H128.98V3.02458H129.619V17.1967L145.168 17.1967V3.02458H145.807V17.1967H161.356V3.02458H161.995V17.1967L177.544 17.1967V3.02458H178.183V17.1967H193.732V3.02459H194.371V17.1967H209.92V3.02459H210.559V17.1967L226.109 17.1967V3.02459H226.748V17.1967H242.297V3.02459H242.936V17.1967L258.485 17.1967V3.02459H259.124V17.1967H274.673V3.02459L275.312 3.02459V17.1967H290.861V3.02459L291.5 3.02459V17.1967L307.049 17.1967V3.0246L307.688 3.0246V17.1967H323.237V3.0246L323.876 3.0246V17.1967L339.425 17.1967V3.0246L340.064 3.0246V17.1967H355.613V3.0246L356.252 3.0246V17.1967H371.801V3.0246L372.44 3.0246V17.1967H387.989V3.0246L388.628 3.0246V17.1967H404.177V3.0246L404.816 3.0246V17.1967L420.365 17.1967V3.02461H421.004V17.1967H436.554V3.02461H437.193V17.1967L452.742 17.1967V3.02461H453.381V17.1967H468.93V3.02461H469.569V17.1967H485.118V3.02461H485.757V17.1967L501.306 17.1967V3.02461H501.945V17.1967H517.494V3.02461H518.133V17.1967L533.682 17.1967V3.02462H534.321V17.1967H549.87V3.02462H550.509V17.1967H566.058V3.02462H566.697V17.1967L582.246 17.1968V3.02462H582.885V17.1968H598.434V3.02462H599.073V17.1968L614.622 17.1968V3.02462H615.261V17.1968H629V17.8361H615.261V33.3935H629V34.0328H615.261V49.5902H629V50.2295H615.261V65.7869H629V66.4263H615.261V81.9836H629V82.623H615.261V98.1804H629V98.8197H615.261V114.377H629V115.016H615.261V130.574H629V131.213H615.261V146.77H629V147.41H615.261V162.967H629V163.607H615.261V179.164H629V179.803H615.261V195.361H629V196L-200 196V195.361H-194.782L-194.782 179.803H-200V179.164H-194.782L-194.782 163.607H-200V162.967H-194.782L-194.782 147.41H-200V146.77H-194.782L-194.782 131.213H-199.148L-199.148 130.574H-194.782L-194.782 115.016H-200V114.377H-194.782L-194.782 98.8197H-200V98.1803H-194.782L-194.782 82.6229H-200V81.9836H-194.782L-194.782 66.4262H-200V65.7869H-194.782L-194.782 50.2295H-199.148L-199.148 49.5902H-194.782L-194.782 34.0328H-200V33.3934H-194.782L-194.782 17.8361H-200V17.1967H-194.782L-194.782 3.02455L-194.143 3.02455ZM-194.143 195.361H-178.593V179.803H-194.143L-194.143 195.361ZM-177.954 195.361H-162.405V179.803H-177.954V195.361ZM-161.766 195.361H-146.217V179.803H-161.766V195.361ZM-145.578 195.361H-130.029V179.803H-145.578V195.361ZM-129.39 195.361H-113.841V179.803H-129.39V195.361ZM-113.202 195.361H-97.6531V179.803H-113.202V195.361ZM-97.014 195.361H-81.465V179.803H-97.014V195.361ZM-80.826 195.361H-65.2769V179.803H-80.826V195.361ZM-64.6379 195.361H-49.0888V179.803H-64.6379V195.361ZM-48.4498 195.361H-32.9007V179.803H-48.4498V195.361ZM-32.2617 195.361H-16.7127V179.803H-32.2617V195.361ZM-16.0737 195.361H-0.524576V179.803H-16.0737V195.361ZM0.114428 195.361L15.6635 195.361V179.803L0.114428 179.803V195.361ZM16.3025 195.361H31.8516V179.803H16.3025V195.361ZM32.4906 195.361H48.0397V179.803H32.4906V195.361ZM48.6787 195.361H64.2277V179.803H48.6787V195.361ZM64.8667 195.361H80.4158V179.803H64.8667V195.361ZM81.0548 195.361H96.6039V179.803H81.0548V195.361ZM97.2429 195.361H112.792V179.803H97.2429V195.361ZM113.431 195.361H128.98V179.803H113.431V195.361ZM129.619 195.361H145.168V179.803H129.619V195.361ZM145.807 195.361H161.356V179.803H145.807V195.361ZM161.995 195.361H177.544V179.803H161.995V195.361ZM178.183 195.361H193.732V179.803H178.183V195.361ZM194.371 195.361H209.92V179.803H194.371V195.361ZM210.559 195.361H226.109V179.803H210.559V195.361ZM226.748 195.361H242.297V179.803H226.748V195.361ZM242.936 195.361H258.485V179.803H242.936V195.361ZM259.124 195.361H274.673V179.803H259.124V195.361ZM275.312 195.361H290.861V179.803H275.312V195.361ZM291.5 195.361H307.049V179.803H291.5V195.361ZM307.688 195.361H323.237V179.803H307.688V195.361ZM323.876 195.361H339.425V179.803H323.876V195.361ZM340.064 195.361H355.613V179.803H340.064V195.361ZM356.252 195.361H371.801V179.803H356.252V195.361ZM372.44 195.361H387.989V179.803H372.44V195.361ZM388.628 195.361H404.177V179.803H388.628V195.361ZM404.816 195.361H420.365V179.803H404.816V195.361ZM421.004 195.361L436.554 195.361V179.803L421.004 179.803V195.361ZM437.193 195.361H452.742V179.803H437.193V195.361ZM453.381 195.361H468.93V179.803H453.381V195.361ZM469.569 195.361H485.118V179.803H469.569V195.361ZM485.757 195.361H501.306V179.803H485.757V195.361ZM501.945 195.361H517.494V179.803H501.945V195.361ZM518.133 195.361H533.682V179.803H518.133V195.361ZM534.321 195.361H549.87V179.803H534.321V195.361ZM550.509 195.361H566.058V179.803H550.509V195.361ZM566.697 195.361H582.246V179.803H566.697V195.361ZM582.885 195.361H598.434V179.803H582.885V195.361ZM599.073 195.361H614.622V179.803H599.073V195.361ZM614.622 163.607V179.164H599.073V163.607H614.622ZM598.434 163.607V179.164H582.885V163.607H598.434ZM582.246 163.607V179.164H566.697V163.607H582.246ZM566.058 163.607V179.164H550.509V163.607H566.058ZM549.87 163.607V179.164H534.321V163.607H549.87ZM533.682 163.607V179.164H518.133V163.607H533.682ZM517.494 163.607V179.164H501.945V163.607H517.494ZM501.306 163.607V179.164H485.757V163.607H501.306ZM485.118 163.607V179.164H469.569V163.607H485.118ZM468.93 163.607V179.164H453.381V163.607H468.93ZM452.742 163.607V179.164H437.193V163.607H452.742ZM436.554 163.607V179.164L421.004 179.164V163.607L436.554 163.607ZM420.365 163.607V179.164H404.816V163.607H420.365ZM404.177 163.607V179.164H388.628V163.607H404.177ZM387.989 163.607V179.164H372.44V163.607H387.989ZM371.801 163.607V179.164H356.252V163.607H371.801ZM355.613 163.607V179.164H340.064V163.607H355.613ZM339.425 163.607V179.164H323.876V163.607H339.425ZM323.237 163.607V179.164H307.688V163.607H323.237ZM307.049 163.607V179.164H291.5V163.607H307.049ZM290.861 163.607V179.164H275.312V163.607H290.861ZM274.673 163.607V179.164H259.124V163.607H274.673ZM258.485 163.607V179.164H242.936V163.607H258.485ZM242.297 163.607V179.164H226.748V163.607H242.297ZM226.109 163.607V179.164H210.559V163.607H226.109ZM209.92 163.607V179.164H194.371V163.607H209.92ZM193.732 163.607V179.164H178.183V163.607H193.732ZM177.544 163.607V179.164H161.995V163.607H177.544ZM161.356 163.607V179.164H145.807V163.607H161.356ZM145.168 163.607V179.164H129.619V163.607H145.168ZM128.98 163.607V179.164H113.431V163.607H128.98ZM112.792 163.607V179.164H97.2429V163.607H112.792ZM96.6039 163.607V179.164H81.0548V163.607H96.6039ZM80.4158 163.607V179.164H64.8668V163.607H80.4158ZM64.2278 163.607V179.164H48.6787V163.607H64.2278ZM48.0397 163.607V179.164H32.4906V163.607H48.0397ZM31.8516 163.607V179.164H16.3025V163.607H31.8516ZM15.6635 163.607V179.164L0.114441 179.164V163.607L15.6635 163.607ZM-0.524563 163.607V179.164H-16.0736V163.607H-0.524563ZM-16.7126 163.607V179.164H-32.2617V163.607H-16.7126ZM-32.9007 163.607V179.164H-48.4498V163.607H-32.9007ZM-49.0888 163.607V179.164H-64.6379V163.607H-49.0888ZM-65.2769 163.607V179.164H-80.826V163.607H-65.2769ZM-81.465 163.607V179.164H-97.014V163.607H-81.465ZM-97.653 163.607V179.164H-113.202V163.607H-97.653ZM-113.841 163.607V179.164H-129.39V163.607H-113.841ZM-130.029 163.607V179.164H-145.578V163.607H-130.029ZM-146.217 163.607V179.164H-161.766V163.607H-146.217ZM-162.405 163.607V179.164H-177.954V163.607H-162.405ZM-178.593 163.607V179.164H-194.143L-194.143 163.607H-178.593ZM-194.143 162.967H-178.593V147.41H-194.143L-194.143 162.967ZM-177.954 162.967H-162.405V147.41H-177.954V162.967ZM-161.766 162.967H-146.217V147.41H-161.766V162.967ZM-145.578 162.967H-130.029V147.41H-145.578V162.967ZM-129.39 162.967H-113.841V147.41H-129.39V162.967ZM-113.202 162.967H-97.653V147.41H-113.202V162.967ZM-97.014 162.967H-81.465V147.41H-97.014V162.967ZM-80.826 162.967H-65.2769V147.41H-80.826V162.967ZM-64.6379 162.967H-49.0888V147.41H-64.6379V162.967ZM-48.4498 162.967H-32.9007V147.41H-48.4498V162.967ZM-32.2617 162.967H-16.7126V147.41H-32.2617V162.967ZM-16.0736 162.967H-0.524563V147.41H-16.0736V162.967ZM0.114441 162.967L15.6635 162.967V147.41L0.114441 147.41V162.967ZM16.3025 162.967H31.8516V147.41H16.3025V162.967ZM32.4906 162.967H48.0397V147.41H32.4906V162.967ZM48.6787 162.967H64.2278V147.41H48.6787V162.967ZM64.8668 162.967H80.4158V147.41H64.8668V162.967ZM81.0548 162.967H96.6039V147.41H81.0548V162.967ZM97.2429 162.967H112.792V147.41H97.2429V162.967ZM113.431 162.967H128.98V147.41H113.431V162.967ZM129.619 162.967H145.168V147.41H129.619V162.967ZM145.807 162.967H161.356V147.41H145.807V162.967ZM161.995 162.967H177.544V147.41H161.995V162.967ZM178.183 162.967H193.732V147.41H178.183V162.967ZM194.371 162.967H209.92V147.41H194.371V162.967ZM210.559 162.967H226.109V147.41H210.559V162.967ZM226.748 162.967H242.297V147.41H226.748V162.967ZM242.936 162.967H258.485V147.41H242.936V162.967ZM259.124 162.967H274.673V147.41H259.124V162.967ZM275.312 162.967H290.861V147.41H275.312V162.967ZM291.5 162.967H307.049V147.41H291.5V162.967ZM307.688 162.967H323.237V147.41H307.688V162.967ZM323.876 162.967H339.425V147.41H323.876V162.967ZM340.064 162.967H355.613V147.41H340.064V162.967ZM356.252 162.967H371.801V147.41H356.252V162.967ZM372.44 162.967H387.989V147.41H372.44V162.967ZM388.628 162.967H404.177V147.41H388.628V162.967ZM404.816 162.967H420.365V147.41H404.816V162.967ZM421.004 162.967L436.554 162.967V147.41L421.004 147.41V162.967ZM437.193 162.967H452.742V147.41H437.193V162.967ZM453.381 162.967H468.93V147.41H453.381V162.967ZM469.569 162.967H485.118V147.41H469.569V162.967ZM485.757 162.967H501.306V147.41H485.757V162.967ZM501.945 162.967H517.494V147.41H501.945V162.967ZM518.133 162.967H533.682V147.41H518.133V162.967ZM534.321 162.967H549.87V147.41H534.321V162.967ZM550.509 162.967H566.058V147.41H550.509V162.967ZM566.697 162.967H582.246V147.41H566.697V162.967ZM582.885 162.967H598.434V147.41H582.885V162.967ZM599.073 162.967H614.622V147.41H599.073V162.967ZM614.622 131.213V146.77H599.073V131.213H614.622ZM598.434 131.213V146.77H582.885V131.213H598.434ZM582.246 131.213V146.77H566.697V131.213H582.246ZM566.058 131.213V146.77H550.509V131.213H566.058ZM549.87 131.213V146.77H534.321V131.213H549.87ZM533.682 131.213V146.77H518.133V131.213H533.682ZM517.494 131.213V146.77H501.945V131.213H517.494ZM501.306 131.213V146.77H485.757V131.213H501.306ZM485.118 131.213V146.77H469.569V131.213H485.118ZM468.93 131.213V146.77H453.381V131.213H468.93ZM452.742 131.213V146.77H437.193V131.213H452.742ZM436.554 131.213V146.77L421.004 146.77V131.213L436.554 131.213ZM420.365 131.213V146.77H404.816V131.213H420.365ZM404.177 131.213V146.77H388.628V131.213H404.177ZM387.989 131.213V146.77H372.44V131.213H387.989ZM371.801 131.213V146.77H356.252V131.213H371.801ZM355.613 131.213V146.77H340.064V131.213H355.613ZM339.425 131.213V146.77H323.876V131.213H339.425ZM323.237 131.213V146.77H307.688V131.213H323.237ZM307.049 131.213V146.77H291.5V131.213H307.049ZM290.861 131.213V146.77H275.312V131.213H290.861ZM274.673 131.213V146.77H259.124V131.213H274.673ZM258.485 131.213V146.77H242.936V131.213H258.485ZM242.297 131.213V146.77H226.748V131.213H242.297ZM226.109 131.213V146.77H210.559V131.213H226.109ZM209.92 131.213V146.77H194.371V131.213H209.92ZM193.732 131.213V146.77H178.183V131.213H193.732ZM177.544 131.213V146.77H161.995V131.213H177.544ZM161.356 131.213V146.77H145.807V131.213H161.356ZM145.168 131.213V146.77H129.619V131.213H145.168ZM128.98 131.213V146.77H113.431V131.213H128.98ZM112.792 131.213V146.77H97.2429V131.213H112.792ZM96.6039 131.213V146.77H81.0548V131.213H96.6039ZM80.4158 131.213V146.77H64.8668V131.213H80.4158ZM64.2278 131.213V146.77H48.6787V131.213H64.2278ZM48.0397 131.213V146.77H32.4906V131.213H48.0397ZM31.8516 131.213V146.77H16.3025V131.213H31.8516ZM15.6635 131.213V146.77L0.114441 146.77V131.213L15.6635 131.213ZM-0.524563 131.213V146.77H-16.0736V131.213H-0.524563ZM-16.7126 131.213V146.77H-32.2617V131.213H-16.7126ZM-32.9007 131.213V146.77H-48.4498V131.213H-32.9007ZM-49.0888 131.213V146.77H-64.6379V131.213H-49.0888ZM-65.2769 131.213V146.77H-80.826V131.213H-65.2769ZM-81.465 131.213V146.77H-97.014V131.213H-81.465ZM-97.653 131.213V146.77H-113.202V131.213H-97.653ZM-113.841 131.213V146.77H-129.39V131.213H-113.841ZM-130.029 131.213V146.77H-145.578V131.213H-130.029ZM-146.217 131.213V146.77H-161.766V131.213H-146.217ZM-162.405 131.213V146.77H-177.954V131.213H-162.405ZM-178.593 131.213V146.77H-194.143L-194.143 131.213H-178.593ZM-194.143 130.574H-178.593L-178.593 115.016H-194.143L-194.143 130.574ZM-177.954 130.574H-162.405V115.016H-177.954L-177.954 130.574ZM-161.766 130.574H-146.217V115.016H-161.766V130.574ZM-145.578 130.574H-130.029V115.016H-145.578V130.574ZM-129.39 130.574H-113.841V115.016H-129.39V130.574ZM-113.202 130.574H-97.653V115.016H-113.202V130.574ZM-97.014 130.574H-81.465V115.016H-97.014V130.574ZM-80.826 130.574H-65.2769V115.016H-80.826V130.574ZM-64.6379 130.574H-49.0888V115.016H-64.6379V130.574ZM-48.4498 130.574H-32.9007V115.016H-48.4498V130.574ZM-32.2617 130.574H-16.7126V115.016H-32.2617V130.574ZM-16.0736 130.574H-0.524563V115.016H-16.0736V130.574ZM0.114441 130.574L15.6635 130.574V115.016L0.114441 115.016V130.574ZM16.3025 130.574H31.8516V115.016H16.3025V130.574ZM32.4906 130.574H48.0397V115.016H32.4906V130.574ZM48.6787 130.574H64.2278V115.016H48.6787V130.574ZM64.8668 130.574H80.4158V115.016H64.8668V130.574ZM81.0548 130.574H96.6039V115.016H81.0548V130.574ZM97.2429 130.574H112.792V115.016H97.2429V130.574ZM113.431 130.574H128.98V115.016H113.431V130.574ZM129.619 130.574H145.168V115.016H129.619V130.574ZM145.807 130.574H161.356V115.016H145.807V130.574ZM161.995 130.574H177.544V115.016H161.995V130.574ZM178.183 130.574H193.732V115.016H178.183V130.574ZM194.371 130.574H209.92V115.016H194.371V130.574ZM210.559 130.574H226.109V115.016H210.559V130.574ZM226.748 130.574H242.297V115.016H226.748V130.574ZM242.936 130.574H258.485V115.016H242.936V130.574ZM259.124 130.574H274.673V115.016H259.124V130.574ZM275.312 130.574H290.861V115.016H275.312V130.574ZM291.5 130.574H307.049V115.016H291.5V130.574ZM307.688 130.574H323.237V115.016H307.688V130.574ZM323.876 130.574H339.425V115.016H323.876V130.574ZM340.064 130.574H355.613V115.016H340.064V130.574ZM356.252 130.574H371.801V115.016H356.252V130.574ZM372.44 130.574H387.989V115.016H372.44V130.574ZM388.628 130.574H404.177V115.016H388.628V130.574ZM404.816 130.574H420.365V115.016H404.816V130.574ZM421.004 130.574L436.554 130.574V115.016L421.004 115.016V130.574ZM437.193 130.574H452.742V115.016H437.193V130.574ZM453.381 130.574H468.93V115.016H453.381V130.574ZM469.569 130.574H485.118V115.016H469.569V130.574ZM485.757 130.574H501.306V115.016H485.757V130.574ZM501.945 130.574H517.494V115.016H501.945V130.574ZM518.133 130.574H533.682V115.016H518.133V130.574ZM534.321 130.574H549.87V115.016H534.321V130.574ZM550.509 130.574H566.058V115.016H550.509V130.574ZM566.697 130.574H582.246V115.016H566.697V130.574ZM582.885 130.574H598.434V115.016H582.885V130.574ZM599.073 130.574H614.622V115.016H599.073V130.574ZM614.622 98.8197V114.377H599.073V98.8197H614.622ZM598.434 98.8197V114.377H582.885V98.8197H598.434ZM582.246 98.8197V114.377H566.697V98.8197H582.246ZM566.058 98.8197V114.377H550.509V98.8197L566.058 98.8197ZM549.87 98.8197V114.377H534.321V98.8197H549.87ZM533.682 98.8197V114.377H518.133V98.8197H533.682ZM517.494 98.8197V114.377H501.945V98.8197H517.494ZM501.306 98.8197V114.377H485.757V98.8197H501.306ZM485.118 98.8197V114.377H469.569V98.8197H485.118ZM468.93 98.8197V114.377H453.381V98.8197H468.93ZM452.742 98.8197V114.377H437.193V98.8197H452.742ZM436.554 98.8197V114.377L421.004 114.377V98.8197L436.554 98.8197ZM420.365 98.8197V114.377H404.816V98.8197H420.365ZM404.177 98.8197V114.377H388.628V98.8197H404.177ZM387.989 98.8197V114.377H372.44V98.8197H387.989ZM371.801 98.8197V114.377H356.252V98.8197H371.801ZM355.613 98.8197V114.377H340.064V98.8197H355.613ZM339.425 98.8197V114.377H323.876V98.8197H339.425ZM323.237 98.8197V114.377H307.688V98.8197H323.237ZM307.049 98.8197V114.377H291.5V98.8197H307.049ZM290.861 98.8197V114.377H275.312V98.8197L290.861 98.8197ZM274.673 98.8197V114.377H259.124V98.8197H274.673ZM258.485 98.8197V114.377H242.936V98.8197H258.485ZM242.297 98.8197V114.377H226.748V98.8197H242.297ZM226.109 98.8197V114.377H210.559V98.8197H226.109ZM209.92 98.8197V114.377H194.371V98.8197H209.92ZM193.732 98.8197V114.377H178.183V98.8197H193.732ZM177.544 98.8197V114.377H161.995V98.8197H177.544ZM161.356 98.8197V114.377H145.807V98.8197H161.356ZM145.168 98.8197V114.377H129.619V98.8197H145.168ZM128.98 98.8197V114.377H113.431V98.8197H128.98ZM112.792 98.8197V114.377H97.2429V98.8197H112.792ZM96.6039 98.8197V114.377H81.0548V98.8197H96.6039ZM80.4158 98.8197V114.377H64.8668V98.8197H80.4158ZM64.2278 98.8197V114.377H48.6787V98.8197H64.2278ZM48.0397 98.8197V114.377H32.4906V98.8197H48.0397ZM31.8516 98.8197V114.377H16.3025V98.8197H31.8516ZM15.6635 98.8197V114.377L0.114441 114.377V98.8197L15.6635 98.8197ZM-0.524563 98.8197V114.377H-16.0736V98.8197H-0.524563ZM-16.7126 98.8197V114.377H-32.2617V98.8197H-16.7126ZM-32.9007 98.8197V114.377H-48.4498V98.8197H-32.9007ZM-49.0888 98.8197V114.377H-64.6379V98.8197H-49.0888ZM-65.2769 98.8197V114.377H-80.826V98.8197H-65.2769ZM-81.465 98.8197V114.377H-97.014V98.8197H-81.465ZM-97.653 98.8197V114.377H-113.202V98.8197H-97.653ZM-113.841 98.8197V114.377H-129.39V98.8197H-113.841ZM-130.029 98.8197V114.377H-145.578V98.8197L-130.029 98.8197ZM-146.217 98.8197V114.377H-161.766V98.8197H-146.217ZM-162.405 98.8197V114.377H-177.954L-177.954 98.8197H-162.405ZM-178.593 98.8197L-178.593 114.377H-194.143L-194.143 98.8197H-178.593ZM-194.143 98.1803H-178.593L-178.593 82.6229H-194.143L-194.143 98.1803ZM-177.954 98.1803H-162.405V82.6229H-177.954L-177.954 98.1803ZM-161.766 98.1803H-146.217V82.6229H-161.766V98.1803ZM-145.578 98.1803L-130.029 98.1803V82.6229L-145.578 82.6229V98.1803ZM-129.39 98.1803H-113.841V82.6229H-129.39V98.1803ZM-113.202 98.1803H-97.653V82.6229H-113.202V98.1803ZM-97.014 98.1803H-81.465V82.6229H-97.014V98.1803ZM-80.826 98.1803H-65.2769V82.6229H-80.826V98.1803ZM-64.6379 98.1803H-49.0888V82.6229H-64.6379V98.1803ZM-48.4498 98.1803H-32.9007V82.6229H-48.4498V98.1803ZM-32.2617 98.1803H-16.7126V82.6229H-32.2617V98.1803ZM-16.0736 98.1803H-0.524563V82.6229H-16.0736V98.1803ZM0.114441 98.1803L15.6635 98.1803V82.623L0.114441 82.6229V98.1803ZM16.3025 98.1803H31.8516V82.623H16.3025V98.1803ZM32.4906 98.1803H48.0397V82.623H32.4906V98.1803ZM48.6787 98.1803H64.2278V82.623H48.6787V98.1803ZM64.8668 98.1803H80.4158V82.623H64.8668V98.1803ZM81.0548 98.1803H96.6039V82.623H81.0548V98.1803ZM97.2429 98.1803H112.792V82.623H97.2429V98.1803ZM113.431 98.1803H128.98V82.623H113.431V98.1803ZM129.619 98.1803H145.168V82.623H129.619V98.1803ZM145.807 98.1803H161.356V82.623H145.807V98.1803ZM161.995 98.1803H177.544V82.623H161.995V98.1803ZM178.183 98.1803H193.732V82.623H178.183V98.1803ZM194.371 98.1803H209.92V82.623H194.371V98.1803ZM210.559 98.1803H226.109V82.623H210.559V98.1803ZM226.748 98.1803H242.297V82.623H226.748V98.1803ZM242.936 98.1803H258.485V82.623H242.936V98.1803ZM259.124 98.1803H274.673V82.623H259.124V98.1803ZM275.312 98.1803L290.861 98.1803V82.623L275.312 82.623V98.1803ZM291.5 98.1803H307.049V82.623H291.5V98.1803ZM307.688 98.1803H323.237V82.623H307.688V98.1803ZM323.876 98.1803H339.425V82.623H323.876V98.1803ZM340.064 98.1803H355.613V82.623H340.064V98.1803ZM356.252 98.1803H371.801V82.623H356.252V98.1803ZM372.44 98.1803H387.989V82.623H372.44V98.1803ZM388.628 98.1803H404.177V82.623H388.628V98.1803ZM404.816 98.1803H420.365V82.623H404.816V98.1803ZM421.004 98.1803L436.554 98.1803V82.623L421.004 82.623V98.1803ZM437.193 98.1803H452.742V82.623H437.193V98.1803ZM453.381 98.1803H468.93V82.623H453.381V98.1803ZM469.569 98.1803H485.118V82.623H469.569V98.1803ZM485.757 98.1803H501.306V82.623H485.757V98.1803ZM501.945 98.1803H517.494V82.623H501.945V98.1803ZM518.133 98.1803H533.682V82.623H518.133V98.1803ZM534.321 98.1803H549.87V82.623H534.321V98.1803ZM550.509 98.1803L566.058 98.1804V82.623L550.509 82.623V98.1803ZM566.697 98.1804H582.246V82.623H566.697V98.1804ZM582.885 98.1804H598.434V82.623H582.885V98.1804ZM599.073 98.1804H614.622V82.623H599.073V98.1804ZM614.622 66.4263V81.9836H599.073V66.4263H614.622ZM598.434 66.4263V81.9836H582.885V66.4263H598.434ZM582.246 66.4263V81.9836H566.697V66.4263H582.246ZM566.058 66.4263V81.9836L550.509 81.9836V66.4263L566.058 66.4263ZM549.87 66.4263V81.9836H534.321V66.4263H549.87ZM533.682 66.4263V81.9836H518.133V66.4263H533.682ZM517.494 66.4263V81.9836H501.945V66.4263H517.494ZM501.306 66.4263V81.9836H485.757V66.4263H501.306ZM485.118 66.4263V81.9836H469.569V66.4263H485.118ZM468.93 66.4263V81.9836H453.381V66.4263H468.93ZM452.742 66.4263V81.9836H437.193V66.4263H452.742ZM436.554 66.4263V81.9836L421.004 81.9836V66.4262L436.554 66.4263ZM420.365 66.4262V81.9836H404.816V66.4262H420.365ZM404.177 66.4262V81.9836H388.628V66.4262H404.177ZM387.989 66.4262V81.9836H372.44V66.4262H387.989ZM371.801 66.4262V81.9836H356.252V66.4262H371.801ZM355.613 66.4262V81.9836H340.064V66.4262H355.613ZM339.425 66.4262V81.9836H323.876V66.4262H339.425ZM323.237 66.4262V81.9836H307.688V66.4262H323.237ZM307.049 66.4262V81.9836H291.5V66.4262H307.049ZM290.861 66.4262V81.9836L275.312 81.9836V66.4262L290.861 66.4262ZM274.673 66.4262V81.9836H259.124V66.4262H274.673ZM258.485 66.4262V81.9836H242.936V66.4262H258.485ZM242.297 66.4262V81.9836H226.748V66.4262H242.297ZM226.109 66.4262V81.9836H210.559V66.4262H226.109ZM209.92 66.4262V81.9836H194.371V66.4262H209.92ZM193.732 66.4262V81.9836H178.183V66.4262H193.732ZM177.544 66.4262V81.9836H161.995V66.4262H177.544ZM161.356 66.4262V81.9836H145.807V66.4262H161.356ZM145.168 66.4262V81.9836H129.619V66.4262H145.168ZM128.98 66.4262V81.9836H113.431V66.4262H128.98ZM112.792 66.4262V81.9836H97.2429V66.4262H112.792ZM96.6039 66.4262V81.9836H81.0548V66.4262H96.6039ZM80.4158 66.4262V81.9836H64.8668V66.4262H80.4158ZM64.2278 66.4262V81.9836H48.6787V66.4262H64.2278ZM48.0397 66.4262V81.9836H32.4906V66.4262H48.0397ZM31.8516 66.4262V81.9836H16.3025V66.4262H31.8516ZM15.6635 66.4262V81.9836L0.114441 81.9836V66.4262L15.6635 66.4262ZM-0.524563 66.4262V81.9836H-16.0736V66.4262H-0.524563ZM-16.7126 66.4262V81.9836H-32.2617V66.4262H-16.7126ZM-32.9007 66.4262V81.9836H-48.4498V66.4262H-32.9007ZM-49.0888 66.4262V81.9836H-64.6379V66.4262H-49.0888ZM-65.2769 66.4262V81.9836H-80.826V66.4262H-65.2769ZM-81.465 66.4262V81.9836H-97.014V66.4262H-81.465ZM-97.653 66.4262V81.9836H-113.202V66.4262H-97.653ZM-113.841 66.4262V81.9836H-129.39V66.4262H-113.841ZM-130.029 66.4262V81.9836L-145.578 81.9836V66.4262L-130.029 66.4262ZM-146.217 66.4262V81.9836H-161.766V66.4262H-146.217ZM-162.405 66.4262V81.9836H-177.954L-177.954 66.4262H-162.405ZM-178.593 66.4262L-178.593 81.9836H-194.143L-194.143 66.4262H-178.593ZM-194.143 65.7869H-178.593L-178.593 50.2295H-194.143L-194.143 65.7869ZM-177.954 65.7869H-162.405V50.2295H-177.954L-177.954 65.7869ZM-161.766 65.7869H-146.217V50.2295L-161.766 50.2295V65.7869ZM-145.578 65.7869L-130.029 65.7869V50.2295H-145.578V65.7869ZM-129.39 65.7869H-113.841V50.2295H-129.39V65.7869ZM-113.202 65.7869H-97.653V50.2295H-113.202V65.7869ZM-97.014 65.7869H-81.465V50.2295H-97.014V65.7869ZM-80.826 65.7869H-65.2769V50.2295L-80.826 50.2295V65.7869ZM-64.6379 65.7869H-49.0888V50.2295H-64.6379V65.7869ZM-48.4498 65.7869H-32.9007V50.2295H-48.4498V65.7869ZM-32.2617 65.7869H-16.7126V50.2295H-32.2617V65.7869ZM-16.0736 65.7869H-0.524563V50.2295H-16.0736V65.7869ZM0.114441 65.7869L15.6635 65.7869V50.2295L0.114441 50.2295V65.7869ZM16.3025 65.7869H31.8516V50.2295H16.3025V65.7869ZM32.4906 65.7869H48.0397V50.2295H32.4906V65.7869ZM48.6787 65.7869H64.2278V50.2295H48.6787V65.7869ZM64.8668 65.7869H80.4158V50.2295H64.8668V65.7869ZM81.0548 65.7869H96.6039V50.2295L81.0548 50.2295V65.7869ZM97.2429 65.7869H112.792V50.2295H97.2429V65.7869ZM113.431 65.7869H128.98V50.2295H113.431V65.7869ZM129.619 65.7869H145.168V50.2295H129.619V65.7869ZM145.807 65.7869H161.356V50.2295H145.807V65.7869ZM161.995 65.7869H177.544V50.2295L161.995 50.2295V65.7869ZM178.183 65.7869H193.732V50.2295H178.183V65.7869ZM194.371 65.7869H209.92V50.2295H194.371V65.7869ZM210.559 65.7869H226.109V50.2295H210.559V65.7869ZM226.748 65.7869H242.297V50.2295H226.748V65.7869ZM242.936 65.7869H258.485V50.2295L242.936 50.2295V65.7869ZM259.124 65.7869H274.673V50.2295H259.124V65.7869ZM275.312 65.7869L290.861 65.7869V50.2295H275.312V65.7869ZM291.5 65.7869H307.049V50.2295H291.5V65.7869ZM307.688 65.7869H323.237V50.2295H307.688V65.7869ZM323.876 65.7869H339.425V50.2295L323.876 50.2295V65.7869ZM340.064 65.7869H355.613V50.2295H340.064V65.7869ZM356.252 65.7869H371.801V50.2295H356.252V65.7869ZM372.44 65.7869H387.989V50.2295H372.44V65.7869ZM388.628 65.7869H404.177V50.2295H388.628V65.7869ZM404.816 65.7869H420.365V50.2295H404.816V65.7869ZM421.004 65.7869L436.554 65.7869V50.2295L421.004 50.2295V65.7869ZM437.193 65.7869H452.742V50.2295H437.193V65.7869ZM453.381 65.7869H468.93V50.2295H453.381V65.7869ZM469.569 65.7869H485.118V50.2295H469.569V65.7869ZM485.757 65.7869H501.306V50.2295H485.757V65.7869ZM501.945 65.7869H517.494V50.2295L501.945 50.2295V65.7869ZM518.133 65.7869H533.682V50.2295H518.133V65.7869ZM534.321 65.7869H549.87V50.2295H534.321V65.7869ZM550.509 65.7869L566.058 65.7869V50.2295H550.509V65.7869ZM566.697 65.7869H582.246V50.2295H566.697V65.7869ZM582.885 65.7869H598.434V50.2295L582.885 50.2295V65.7869ZM599.073 65.7869H614.622V50.2295H599.073V65.7869ZM614.622 34.0328V49.5902H599.073V34.0328H614.622ZM598.434 34.0328V49.5902L582.885 49.5902V34.0328L598.434 34.0328ZM582.246 34.0328V49.5902H566.697V34.0328H582.246ZM566.058 34.0328V49.5902H550.509V34.0328H566.058ZM549.87 34.0328V49.5902H534.321V34.0328H549.87ZM533.682 34.0328V49.5902H518.133V34.0328H533.682ZM517.494 34.0328V49.5902L501.945 49.5902V34.0328L517.494 34.0328ZM501.306 34.0328V49.5902H485.757V34.0328H501.306ZM485.118 34.0328V49.5902H469.569V34.0328H485.118ZM468.93 34.0328V49.5902H453.381V34.0328H468.93ZM452.742 34.0328V49.5902H437.193V34.0328H452.742ZM436.554 34.0328V49.5902L421.004 49.5902V34.0328L436.554 34.0328ZM420.365 34.0328V49.5902H404.816V34.0328H420.365ZM404.177 34.0328V49.5902H388.628V34.0328H404.177ZM387.989 34.0328V49.5902H372.44V34.0328H387.989ZM371.801 34.0328V49.5902H356.252V34.0328H371.801ZM355.613 34.0328V49.5902H340.064V34.0328H355.613ZM339.425 34.0328V49.5902L323.876 49.5902V34.0328L339.425 34.0328ZM323.237 34.0328V49.5902H307.688V34.0328H323.237ZM307.049 34.0328V49.5902H291.5V34.0328H307.049ZM290.861 34.0328V49.5902H275.312V34.0328H290.861ZM274.673 34.0328V49.5902H259.124V34.0328H274.673ZM258.485 34.0328V49.5902L242.936 49.5902V34.0328L258.485 34.0328ZM242.297 34.0328V49.5902H226.748V34.0328H242.297ZM226.109 34.0328V49.5902H210.559V34.0328H226.109ZM209.92 34.0328V49.5902H194.371V34.0328H209.92ZM193.732 34.0328V49.5902H178.183V34.0328H193.732ZM177.544 34.0328V49.5902L161.995 49.5902V34.0328L177.544 34.0328ZM161.356 34.0328V49.5902H145.807V34.0328H161.356ZM145.168 34.0328V49.5902H129.619V34.0328H145.168ZM128.98 34.0328V49.5902H113.431V34.0328H128.98ZM112.792 34.0328V49.5902H97.2429V34.0328H112.792ZM96.6039 34.0328V49.5902L81.0548 49.5902V34.0328L96.6039 34.0328ZM80.4158 34.0328V49.5902H64.8668V34.0328H80.4158ZM64.2278 34.0328V49.5902H48.6787V34.0328H64.2278ZM48.0397 34.0328V49.5902H32.4906V34.0328H48.0397ZM31.8516 34.0328V49.5902H16.3025V34.0328H31.8516ZM15.6635 34.0328V49.5902L0.114441 49.5902V34.0328L15.6635 34.0328ZM-0.524563 34.0328V49.5902H-16.0736V34.0328H-0.524563ZM-16.7126 34.0328V49.5902H-32.2617V34.0328H-16.7126ZM-32.9007 34.0328V49.5902H-48.4498V34.0328H-32.9007ZM-49.0888 34.0328V49.5902H-64.6379V34.0328H-49.0888ZM-65.2769 34.0328V49.5902L-80.826 49.5902V34.0328L-65.2769 34.0328ZM-81.465 34.0328V49.5902H-97.014V34.0328H-81.465ZM-97.653 34.0328V49.5902H-113.202V34.0328H-97.653ZM-113.841 34.0328V49.5902H-129.39V34.0328H-113.841ZM-130.029 34.0328V49.5902H-145.578V34.0328H-130.029ZM-146.217 34.0328V49.5902L-161.766 49.5902V34.0328L-146.217 34.0328ZM-162.405 34.0328V49.5902H-177.954L-177.954 34.0328H-162.405ZM-178.593 34.0328L-178.593 49.5902H-194.143L-194.143 34.0328H-178.593ZM-194.143 33.3934H-178.593L-178.593 17.8361L-194.143 17.8361L-194.143 33.3934ZM-177.954 33.3934H-162.405V17.8361H-177.954L-177.954 33.3934ZM-161.766 33.3934L-146.217 33.3934V17.8361H-161.766V33.3934ZM-145.578 33.3934H-130.029V17.8361L-145.578 17.8361V33.3934ZM-129.39 33.3934H-113.841V17.8361H-129.39V33.3934ZM-113.202 33.3934H-97.653V17.8361L-113.202 17.8361V33.3934ZM-97.014 33.3934H-81.465V17.8361H-97.014V33.3934ZM-80.826 33.3934L-65.2769 33.3934V17.8361H-80.826V33.3934ZM-64.6379 33.3934H-49.0888V17.8361L-64.6379 17.8361V33.3934ZM-48.4498 33.3934H-32.9007V17.8361H-48.4498V33.3934ZM-32.2617 33.3934H-16.7126V17.8361L-32.2617 17.8361V33.3934ZM-16.0736 33.3934H-0.524563V17.8361H-16.0736V33.3934ZM0.114441 33.3934L15.6635 33.3935V17.8361H0.114441V33.3934ZM16.3025 33.3935H31.8516V17.8361L16.3025 17.8361V33.3935ZM32.4906 33.3935H48.0397V17.8361H32.4906V33.3935ZM48.6787 33.3935H64.2278V17.8361L48.6787 17.8361V33.3935ZM64.8668 33.3935H80.4158V17.8361H64.8668V33.3935ZM81.0548 33.3935L96.6039 33.3935V17.8361L81.0548 17.8361V33.3935ZM97.2429 33.3935H112.792V17.8361H97.2429V33.3935ZM113.431 33.3935H128.98V17.8361H113.431V33.3935ZM129.619 33.3935H145.168V17.8361L129.619 17.8361V33.3935ZM145.807 33.3935H161.356V17.8361H145.807V33.3935ZM161.995 33.3935L177.544 33.3935V17.8361L161.995 17.8361V33.3935ZM178.183 33.3935H193.732V17.8361H178.183V33.3935ZM194.371 33.3935H209.92V17.8361H194.371V33.3935ZM210.559 33.3935H226.109V17.8361L210.559 17.8361V33.3935ZM226.748 33.3935H242.297V17.8361H226.748V33.3935ZM242.936 33.3935L258.485 33.3935V17.8361L242.936 17.8361V33.3935ZM259.124 33.3935H274.673V17.8361H259.124V33.3935ZM275.312 33.3935H290.861V17.8361H275.312V33.3935ZM291.5 33.3935H307.049V17.8361L291.5 17.8361V33.3935ZM307.688 33.3935H323.237V17.8361H307.688V33.3935ZM323.876 33.3935L339.425 33.3935V17.8361L323.876 17.8361V33.3935ZM340.064 33.3935H355.613V17.8361H340.064V33.3935ZM356.252 33.3935H371.801V17.8361H356.252V33.3935ZM372.44 33.3935H387.989V17.8361H372.44V33.3935ZM388.628 33.3935H404.177V17.8361H388.628V33.3935ZM404.816 33.3935H420.365V17.8361L404.816 17.8361V33.3935ZM421.004 33.3935L436.554 33.3935V17.8361H421.004V33.3935ZM437.193 33.3935H452.742V17.8361L437.193 17.8361V33.3935ZM453.381 33.3935H468.93V17.8361H453.381V33.3935ZM469.569 33.3935H485.118V17.8361H469.569V33.3935ZM485.757 33.3935H501.306V17.8361L485.757 17.8361V33.3935ZM501.945 33.3935L517.494 33.3935V17.8361H501.945V33.3935ZM518.133 33.3935H533.682V17.8361L518.133 17.8361V33.3935ZM534.321 33.3935H549.87V17.8361H534.321V33.3935ZM550.509 33.3935H566.058V17.8361H550.509V33.3935ZM566.697 33.3935H582.246V17.8361L566.697 17.8361V33.3935ZM582.885 33.3935L598.434 33.3935V17.8361H582.885V33.3935ZM599.073 33.3935H614.622V17.8361L599.073 17.8361V33.3935Z" fill="url(#paint1_radial_1270_1864)"/>
</g>
</g>
<defs>
<radialGradient id="paint0_radial_1270_1864" cx="0" cy="0" r="1" gradientUnits="userSpaceOnUse" gradientTransform="translate(214.5 6.75409) rotate(90) scale(143 607.933)">
<stop stop-color="#C9C9C9"/>
<stop offset="1" stop-color="#C9C9C9" stop-opacity="0"/>
</radialGradient>
<radialGradient id="paint1_radial_1270_1864" cx="0" cy="0" r="1" gradientUnits="userSpaceOnUse" gradientTransform="translate(214.5 6.75409) rotate(90) scale(143 607.933)">
<stop stop-color="#C9C9C9"/>
<stop offset="1" stop-color="#C9C9C9" stop-opacity="0"/>
</radialGradient>
<clipPath id="clip0_1270_1864">
<rect width="430" height="613" fill="white"/>
</clipPath>
</defs>
</svg>
